{"title":"Ariana Grande Ft. Big Sean - Right There [Music Video] 1080p [Sb","uid":9278879,"size":120824590,"categoryP":"video","categoryS":"music_videos","magnet":"?xt=urn:btih:e18474c75e00f6a6b0eb3cb2a280a5ea1c2a0dce&amp;dn=Ariana+Grande+Ft.+Big+Sean+-+Right+There+%5BMusic+Video%5D+1080p+%5BSb&amp;tr=udp%3A%2F%2Ftracker.openbittorrent.com%3A80&amp;tr=udp%3A%2F%2Fopen.demonii.com%3A1337&amp;tr=udp%3A%2F%2Ftracker.coppersurfer.tk%3A6969&amp;tr=udp%3A%2F%2Fexodus.desync.com%3A6969","seeders":1,"leechers":0,"uploader":"Sbyky","files":1,"time":1385906135,"description":"[IMG]http://cdn.piczend.com/images/x532VfLz/1385882699_rightthere.jpg[/IMG]\n\nGeneral\nComplete name                            : Ariana Grande Ft. Big Sean - Right There [Music Video] 1080p [Sbyky].MP4\nFormat                                   : MPEG-4\nFormat profile                           : Base Media\nCodec ID                                 : isom\nFile size                                : 115 MiB\nDuration                                 : 4mn 18s\nOverall bit rate mode                    : Variable\nOverall bit rate                         : 3 735 Kbps\nEncoded date                             : UTC 2013-11-12 06:00:40\nTagged date                              : UTC 2013-11-12 06:00:40\n\nVideo\nID                                       : 1\nFormat                                   : AVC\nFormat/Info                              : Advanced Video Codec\nFormat profile                           : &lt;a class=&quot;__cf_email__&quot; href=&quot;/cdn-cgi/l/email-protection&quot; data-cfemail=&quot;074f6e606f474b332937&quot;&gt;[email&amp;#160;protected]&lt;/a&gt;&lt;script cf-hash='f9e31' type=&quot;text/javascript&quot;&gt;\n/* &lt;![CDATA[ */!function(){try{var t=&quot;currentScript&quot;in document?document.currentScript:function(){for(var t=document.getElementsByTagName(&quot;script&quot;),e=t.length;e--;)if(t[e].getAttribute(&quot;cf-hash&quot;))return t[e]}();if(t&amp;&amp;t.previousSibling){var e,r,n,i,c=t.previousSibling,a=c.getAttribute(&quot;data-cfemail&quot;);if(a){for(e=&quot;&quot;,r=parseInt(a.substr(0,2),16),n=2;a.length-n;n+=2)i=parseInt(a.substr(n,2),16)^r,e+=String.fromCharCode(i);e=document.createTextNode(e),c.parentNode.replaceChild(e,c)}}}catch(u){}}();/* ]]&gt; */&lt;/script&gt;\nFormat settings, CABAC                   : Yes\nFormat settings, ReFrames                : 3 frames\nCodec ID                                 : avc1\nCodec ID/Info                            : Advanced Video Coding\nDuration                                 : 4mn 18s\nBit rate                                 : 3 479 Kbps\nWidth                                    : 1 920 pixels\nHeight                                   : 1 080 pixels\nDisplay aspect ratio                     : 16:9\nFrame rate mode                          : Variable\nFrame rate                               : 23.976 fps\nMinimum frame rate                       : 23.974 fps\nMaximum frame rate                       : 4 736.842 fps\nColor space                              : YUV\nChroma subsampling                       : 4:2:0\nBit depth                                : 8 bits\nScan type                                : Progressive\nBits/(Pixel*Frame)                       : 0.070\nStream size                              : 107 MiB (93%)\nEncoded date                             : UTC 2013-11-12 06:00:40\nTagged date                              : UTC 2013-11-12 06:00:40\n\nAudio\nID                                       : 2\nFormat                                   : AAC\nFormat/Info                              : Advanced Audio Codec\nFormat profile                           : LC\nCodec ID                                 : 40\nDuration                                 : 4mn 18s\nBit rate mode                            : Variable\nBit rate                                 : 254 Kbps\nChannel(s)                               : 2 channels\nChannel positions                        : Front: L R\nSampling rate                            : 44.1 KHz\nCompression mode                         : Lossy\nDelay relative to video                  : 42ms\nStream size                              : 7.82 MiB (7%)\nEncoded date                             : UTC 2013-11-12 05:59:34\nTagged date                              : UTC 2013-11-12 05:59:34\n\nShared By Sbyky\n[IMG]http://cdn.piczend.com/images/X3Ag13N3/1379453786_saythanks.gif[/IMG]\n[IMG]http://cdn.piczend.com/images/gGqhX2S8/1379453780_keepseeding.gif[/IMG]","torrent":{"xt":"urn:btih:e18474c75e00f6a6b0eb3cb2a280a5ea1c2a0dce","amp;dn":"Ariana+Grande+Ft.+Big+Sean+-+Right+There+%5BMusic+Video%5D+1080p+%5BSb","amp;tr":["udp%3A%2F%2Ftracker.openbittorrent.com%3A80","udp%3A%2F%2Fopen.demonii.com%3A1337","udp%3A%2F%2Ftracker.coppersurfer.tk%3A6969","udp%3A%2F%2Fexodus.desync.com%3A6969"],"infoHash":"e18474c75e00f6a6b0eb3cb2a280a5ea1c2a0dce","infoHashBuffer":{"type":"Buffer","data":[225,132,116,199,94,0,246,166,176,235,60,178,162,128,165,234,28,42,13,206]},"announce":[],"urlList":[]}}